<?xml version="1.0" encoding="UTF-8"?>
<svg width="200px" height="64px" viewBox="0 0 200 64" version="1.1" xmlns="http://www.w3.org/2000/svg" xmlns:xlink="http://www.w3.org/1999/xlink">
    <title>coac-logo</title>
    <g id="coac-logo" stroke="none" stroke-width="1" fill="none" fill-rule="evenodd">
        <path d="M186.258981,0 C199.43336,0 199.976633,7.52909865 199.999036,8.15005524 L199.999985,8.18809771 L199.999985,8.18809771 L200,8.19069132 L200,17.8003923 C196.472045,14.2220531 191.617947,11.0233847 186.258981,11.0233847 C175.475161,11.0233847 168.178692,20.9602568 168.178692,32.0003804 C168.178692,43.0397432 175.475161,52.9766153 186.258981,52.9766153 C191.617947,52.9766153 196.472045,49.7779469 200,46.1996077 L200,46.1996077 L200,55.8093087 C200,55.8093087 200,55.8101792 199.999985,55.8119023 L199.999036,55.8499448 C199.976633,56.4709014 199.43336,64 186.258981,64 C168.995369,64 155,49.6729478 155,32.0003804 C155,14.3270522 168.995369,0 186.258981,0 Z M121.50046,0 C138.127852,0 151.650183,13.8061686 152.110387,31.0153087 L152.110387,31.0153087 L152.110387,56.4472851 C152.110387,62.8153619 153.802964,63.89475 153.984312,63.992123 L154,64 L142.448362,64 C142.448362,64 140.558749,63.0111347 140.558749,56.8965624 C136.46196,60.3822556 128.706815,63.8360745 121.50046,63.8360745 C113.616188,63.8360745 106.429353,60.7298384 101,55.6306933 C103.710172,52.4318697 105.879811,48.7245734 107.364775,44.6658998 C110.470587,49.5533078 115.417213,52.8409245 121.50046,52.8409245 C131.506325,52.8409245 138.296018,43.8523437 139.141352,33.6548126 L139.141352,33.6548126 L139.141352,31.0153087 L139.196156,31.0153087 C138.742709,20.4231421 131.778093,10.9951501 121.50046,10.9951501 C115.417213,10.9951501 110.470587,14.2827667 107.364775,19.1701747 C105.879811,15.1115011 103.710172,11.4049638 101,8.20538118 C106.429353,3.10623614 113.616188,0 121.50046,0 Z M75.5,0 C92.3444439,0 106,14.3272226 106,32 C106,49.6735383 92.3444439,64 75.5,64 C58.6555561,64 45,49.6735383 45,32 C45,14.3272226 58.6555561,0 75.5,0 Z M31.2589806,0 C44.43336,0 44.9766334,7.52909865 44.9990364,8.15005524 L44.9999849,8.18809771 L44.9999849,8.18809771 L45,8.19069132 L45,17.8003923 C41.4712792,14.2220531 36.6179475,11.0233847 31.2589806,11.0233847 C20.4743948,11.0233847 13.1786918,20.9602568 13.1786918,32.0003804 C13.1786918,43.0397432 20.4743948,52.9766153 31.2589806,52.9766153 C36.6179475,52.9766153 41.4712792,49.7779469 45,46.1996077 L45,46.1996077 L45,55.8093087 C45,55.8093087 45,55.8101792 44.9999849,55.8119023 L44.9990364,55.8499448 C44.9766334,56.4709014 44.43336,64 31.2589806,64 C13.9953693,64 0,49.6729478 0,32.0003804 C0,14.3270522 13.9953693,0 31.2589806,0 Z M76,12 C65.2640678,12 58,21.7103502 58,32.4996282 C58,43.2889062 65.2640678,53 76,53 C86.7366949,53 94,43.2889062 94,32.4996282 C94,21.7103502 86.7366949,12 76,12 Z" id="Combined-Shape" fill="#00A7E7"></path>
    </g>
</svg>