<svg id="Ebene_1" data-name="Ebene 1" xmlns="http://www.w3.org/2000/svg" viewBox="0 0 260.1 87.63"><defs><style>.cls-1{fill:#ece9e9;}.cls-1,.cls-2,.cls-3{fill-rule:evenodd;}.cls-2{fill:#004a76;}.cls-3{fill:#fff;}</style></defs><path class="cls-1" d="M39,101.9A23.12,23.12,0,0,1,16,78.78V14.46c21.47-.09,42.94-.09,64.5-.18a23.19,23.19,0,0,1,23,23.12v64.5Z" transform="translate(-16 -14.28)"/><path class="cls-2" d="M42.08,95.64A19.89,19.89,0,0,1,22.27,75.83V20.73c18.42,0,36.85-.1,55.19-.1A19.82,19.82,0,0,1,97.27,40.35V95.64Z" transform="translate(-16 -14.28)"/><path class="cls-3" d="M90.36,73H86.12v.37l.09.18v.1l.09.18.1.18.09.19.18.09.1.09.09.09H87v.1l.09.09h.19l.09.09h.18l.09.09h1.29l.19-.09h.18l.1-.09h.27l.09-.09h.1l.09-.1v.93h-.09l-.1.09h-.18l-.18.09h-.19l-.18.09h-.65l-.09.09h-.46l-.19-.09h-.46L87,75.55h-.18l-.1-.09h-.18l-.09-.09-.19-.1h-.09L86,75.18l-.09-.09L85.75,75l-.09-.09-.09-.1-.09-.18-.1-.09v-.1l-.09-.18-.09-.09-.09-.09v-.19l-.1-.18v-.09l-.09-.19V71.77l.09-.09V71.5l.1-.1v-.18l.09-.09.09-.09v-.19l.09-.09.1-.09.09-.1.09-.09.09-.09.09-.09.1-.09.18-.1.09-.09.09-.09h.19l.09-.09h.09l.19-.09h.27l.1-.1h.92l.18.1h.28l.09.09h.09l.19.09h.09l.09.09.09.09.1.1h.09l.09.09.09.09.09.09.1.19.09.09.09.09v.09l.09.19.09.09v.28l.1.18V72l.09.18V73Zm-1.11-.74L89.16,72v-.19l-.09-.18V71.4L89,71.31l-.1-.18V71l-.18-.19-.09-.09-.09-.09-.1-.1h-.18l-.09-.09h-.09l-.19-.09h-.28l-.18.09h-.18l-.1.09H87l-.09.1-.09.09-.1.09-.09.19-.09.09-.09.18-.1.09-.09.19V72l-.09.27ZM76,69.84v5.89l-.09.28-.09.37-.09.28-.19.18-.09.28-.18.18-.28.19-.18.18-.28.09-.28.19L74,78h-.37l-.37.09H72.3L72.11,78h-.46L71.47,78h-.18l-.19-.1H71l-.09-.09h-.1l.1-.92H71l.09.09h.19l.09.09h.18l.19.1h.18l.18.09h1.11l.09-.09h.19l.09-.1h.09l.09-.09h.1l.09-.09h.09l.09-.09.09-.09h0l.1-.1.09-.09v-.09l.09-.09V76.2l.09-.1V76l.09-.09v-.37l.1-.09V74.17l-.37.46-.09.09-.1.09-.09.1-.09.09-.09.09-.19.09-.09.09-.09.1H73.4l-.09.09H73l-.1.09h-.55l-.18-.09h-.37l-.09-.09h-.1l-.09-.1-.09-.09h-.09l-.19-.09L71.1,75,71,74.91l-.09-.1-.1-.09v-.09l-.09-.09-.09-.1-.09-.09v-.18l-.09-.09-.1-.1V73.8l-.09-.09v-.46l-.09-.19v-.92l.09-.18v-.37l.09-.19v-.09l.1-.18.09-.09v-.1l.09-.18.09-.09.09-.1.1-.09v-.09L71,70.3l.09-.09.19-.1.09-.09.09-.09h.09l.09-.09h.1l.09-.09h.27l.1-.1h.92l.09.1h.18l.1.09h.18l.09.09.1.09.09.09.18.1.09.09.1.09.09.09.09.19.28.46V69.84Zm-2.85.73h-.37l-.09.1-.19.09h-.09l-.18.09-.1.19-.09.09-.09.09v.09h-.09v.09l-.09.1v.18l-.1.09v.28l-.09.09V73l.09.09v.28l.1.09v.19l.09.09v.09l.09.09V74H72l.09.19.1.09.18.09.09.09.19.1h.92l.18-.1.1-.09.18-.09.09-.09.09-.19h.1v-.09l.09-.09v-.09l.09-.09v-.1h.09v-.27l.09-.1v-1.1L74.6,72v-.28l-.09-.09V71.5l-.09-.1h0v-.09l-.09-.09-.1-.09L74.14,71l-.09-.1-.18-.18h-.1l-.18-.09-.19-.1h-.27Zm-7.28-.92h.55l.19.1h.27l.19.09h.09l.18.09h.1l.18.09.09.09.09.1.1.09.18.09.09.09.09.09.1.1.09.09.09.09V71l.09.09.1.18v.09l.09.19v.09l.09.18v.47l.09.18v.37l-.09.18v.46l-.09.1v.18l-.09.09v.19l-.1.09-.09.18v.09l-.09.1-.09.18-.1.09-.09.1-.09.09-.18.09-.1.09-.09.09h-.18l-.09.1-.1.09h-.18l-.09.09h-.19l-.18.09h-.46l-.19.09h-.37l-.18-.09H65l-.09-.09h-.19l-.18-.09h-.09l-.1-.09-.18-.1H64.1L64,75.18l-.19-.09L63.73,75l-.09-.09-.09-.1-.1-.09-.09-.18-.09-.1-.09-.09v-.18l-.1-.09L63,73.89V73.8l-.09-.18v-.28l-.09-.19v-1L62.9,72v-.28L63,71.5v-.1l.09-.18.1-.09V71l.09-.19.09-.09.09-.09.1-.1.09-.09.09-.09.09-.09.09-.09.19-.1.09-.09.09-.09h.19l.09-.09h.18l.1-.09h.36l.19-.1h.46Zm0,.83-.19.09h-.27l-.19.1-.18.09-.09.09-.19.09-.09.19-.09.09v.09l-.09.09h0l-.1.1v.18l-.09.09v.28l-.09.09v1.11l.09.09v.18l.09.1v.18l.1.09V74l.09.1h0l.09.09.09.18.19.09.09.1.18.09.19.09h.09l.18.09H66l.19-.09h.18l.19-.09.09-.09.18-.1.09-.09.19-.18h0l.09-.09V74l.09-.09V73.8l.1-.09v-.19l.09-.09V73l.09-.09v-.46l-.09-.09v-.47l-.09-.09v-.18l-.1-.09v-.1l-.09-.09h0l-.09-.09v-.09L67,70.94l-.09-.09-.18-.09-.09-.09-.19-.1H66l-.18-.09Zm15.76-.83h.27l.19.1.18.09.18.09.19.09.09.09.19.19.09.09.09.18.09.19.09.28.1.18v4.33H82.07V71.86l-.1-.18v-.09l-.09-.19v-.09l-.09-.18L81.7,71l-.09-.1-.19-.09h-.09l-.09-.09h-.19L81,70.67h-.37l-.18.09h-.19l-.09.09-.18.09-.1.1-.18.18-.09.18-.09.1v.18l-.1.09L79.3,72v3.59H77.92V70.76h0v-.09l-.09-.1h0l-.09-.09h0l-.1-.09h-.37v-.55h1.48l.18.09H79V70l.09.09v1.11l.27-.55.1-.1.09-.18.18-.09.09-.09.1-.1L80,70l.09-.09.19-.09h.09l.18-.09h.09l.19-.1h.74Zm-26.54.83-.19.09h-.27l-.19.1-.18.09-.09.09-.19.09-.09.19-.09.09v.09l-.09.09h0l-.1.1v.18l-.09.09v.37l-.09.09v.83l.09.19v.27l.09.1v.18l.1.09V74l.09.1h0l.09.09.09.18.19.09.09.1.18.09.19.09h.09l.18.09h.37l.19-.09h.18l.19-.09.09-.09.18-.1.09-.09.19-.18h0l.09-.09V74l.09-.09V73.8l.09-.09v-.19l.1-.09V73l.09-.09v-.46l-.09-.09v-.47l-.1-.09v-.18l-.09-.09v-.1l-.09-.09h0l-.09-.09v-.09l-.19-.19-.09-.09-.18-.09-.09-.09-.19-.1h-.37l-.18-.09Zm0-.83h.55l.19.1h.27l.19.09h.09l.18.09h.09l.19.09.09.09.09.1.1.09.18.09.09.09.09.09.1.1.09.09.09.09V71l.09.09.09.18v.09l.1.19v.09l.09.18v.47l.09.18v.37l-.09.18v.46l-.09.1v.18l-.1.09v.19l-.09.09-.09.18v.09l-.09.1-.09.18-.1.09-.09.1-.09.09-.18.09-.1.09-.09.09h-.09l-.19.1-.09.09h-.18l-.09.09h-.19l-.18.09h-.46l-.19.09h-.37l-.09-.09h-.55l-.09-.09H54l-.18-.09h-.09l-.1-.09-.18-.1h-.09l-.09-.09L53,75.09,53,75l-.09-.09-.1-.1-.09-.09-.09-.18-.09-.1-.09-.09v-.18l-.1-.09-.09-.19V73.8l-.09-.18v-.47L52,73.06v-.73l.09-.19v-.46l.09-.18v-.1l.09-.18.1-.09V71l.09-.19.09-.09.09-.09.09-.1.1-.09.09-.09L53,70.3l.09-.09.19-.1.09-.09.09-.09h.19l.09-.09H54l.19-.09h.27l.19-.1h.46Zm-4.7-.92-.09-.09H50l-.18-.09h-.19l-.09-.09h-1l-.19.09h-.27l-.19.09h-.09l-.19.09-.09.09h-.18l-.09.1-.1.09-.09.09-.18.09-.09.09-.1.19-.09.09-.09.09-.09.19-.1.09V70l-.09.19-.09.09v.18l-.09.19v.27l-.09.19v1l.09.09v.37l.09.09v.19l.09.09.09.18v.1l.1.09.09.18.09.1.09.09.1.09.18.09.09.19.09.09h.1l.18.09.09.09.19.09h.09l.18.1h.19l.09.09h.37l.09.09h.55l.19-.09h.37l.09-.09h.18l.09-.1h.19l.18-.09h.1l.09-.09h.09l.09,1h0l-.09.1h-.18l-.1.09h-.27l-.19.09H50l-.18.09h-.37l-.09.09h-.93l-.27-.09H47.7l-.19-.09-.18-.09h-.28l-.18-.09-.19-.1-.18-.09-.19-.09L46.13,75,46,74.81l-.1-.09-.18-.18-.09-.1-.19-.18-.09-.09L45.21,74l-.09-.18-.19-.18v-.19l-.09-.09-.09-.28-.09-.18v-.19l-.1-.18V70.76l.1-.28V70.3l.09-.19.09-.18.09-.18.09-.19.1-.18.09-.19L45.3,69l.09-.09.19-.19.09-.18.18-.09.19-.1.09-.18.18-.09.19-.1.18-.09.19-.09.18-.09.28-.09h.18l.19-.1h.18l.28-.09h1.29l.09.09H50l.09.1h.19l.09.09h.28l.09.09h.18l-.09,1.11h0l-.18-.1-.1-.09Zm9.49,6.82V68.09h0V68l-.09-.09v-.18h-.09v-.09h-.1l-.09-.1h-.37V67h1.66l.09.09H61l.09.1v.09l.09.18v8.11ZM38.39,71.86l-.09-.09v-.09h-.09v-.09h0l-.1-.09h-.18l-.09-.1h-.56v-.46h1.85l.09.1.09.09v.09l.09.09.1.19,1.38,4.23,1.47-4.79h1.29L41.43,77l-.09.1v.18l-.09.09-.1.19v.09l-.09.09L41,78V78l-.09.09-.09.09v.09l-.1.1-.09.09v.09h-.09l-.09.09v.1h-.09l-.1.09-.09.09h-.09l-.09.09h-.19l-.09.09H39.4l-.09.1h-.55l-.19-.1h-.36l.09-.92H39l.09-.09h.18L39.4,78h.1l.09-.09.09-.1.09-.09.09-.09v-.09l.1-.19.09-.09.09-.09.09-.19-1.84-5v-.19Zm-8.48,3.69V68.64l-.09-.18v-.1l-.09-.09h-.09l-.19-.09h-.27v-.55h1.75l.09.09h.09l.09.09v.09l.1.09v3h3.4V67.63h1.39v7.92H34.7V72H31.3v3.59ZM52.4,60.16l3.31-21,2.86,17.42,2.76-17.42L64.65,60a26.4,26.4,0,0,0-4.42-.83,23.66,23.66,0,0,0-7.83,1ZM35.72,64c.09-.46.64-.55,1.47-.55,11,1.2,15.3-3.41,23-2.86,8.57.65,11,5.9,24.6,4.7h.18c-13.45,1.57-16.4-3.22-25-3.68-7.65-.37-11.7,4.42-22.76,3.41-.83,0-1.47-.28-1.47-1Z" transform="translate(-16 -14.28)"/><path class="cls-2" d="M114.26,22.25l-.06-.05-.07-.05-.07,0-.07,0-.06,0-.07,0h-.25l-.07,0-.56.19v-1.5h3.45l5.66,14.92,2.68-7.19h3l2.55,7.27,5.79-15h3.36v1.5l-.56-.19-.07,0h-.26l-.06,0-.07,0-.07,0-.06,0-.07.05-.06.05-.07.07-.06.06-.06.08,0,.05-6.56,17-2.24,0-3-8-2.94,8-2.27.06-6.48-17,0-.05-.06-.08-.06-.06-.06-.07Zm31.39,11h-1.28l-.23,0-.23,0-.23,0-.23,0-.21,0-.21,0-.21,0-.2,0-.19,0-.18.07-.18.06-.17.07-.15.08-.15.09-.14.09-.13.1-.13.11-.11.12-.11.12-.09.13-.08.13-.07.15-.06.16,0,.17,0,.18,0,.2v.47l0,.23,0,.22.06.19.07.17.09.16.11.13.12.13.14.11.15.1.15.08.17.07.19,0,.19,0,.21,0h.51l.27,0,.25,0,.23-.05.21-.07.19-.08.17-.08.16-.11.15-.12.15-.12.13-.13.12-.13.11-.14.1-.14.09-.15.08-.16.07-.16.07-.16.06-.17,0-.17.05-.16,0-.17,0-.17,0-.18,0-.18V33.29Zm-.15,5.11-.11.11-.12.11-.12.1-.12.1-.13.09-.13.09-.14.09-.13.08-.14.08-.14.07-.14.07-.15.06-.14.06-.15.05-.15,0-.15,0-.15,0-.15,0-.15,0-.15,0-.15,0H142l-.31,0-.29,0-.29,0-.26-.06-.26-.07-.23-.09-.22-.1-.21-.12-.18-.11-.18-.13-.17-.12-.16-.14-.14-.14-.14-.15-.12-.16-.11-.15-.1-.16-.09-.16-.09-.16-.07-.17-.06-.16-.05-.17,0-.16,0-.16,0-.15,0-.14,0-.14,0-.13v-.75l0-.36.06-.35.09-.33.11-.3.13-.29.17-.28.18-.24.2-.23.21-.2.23-.19.23-.18.25-.16.26-.14.27-.13.28-.11.28-.1.29-.09.3-.08.3-.07.31-.06.31-.05.32,0,.32,0,.32,0,.32,0,.31,0h1.51V29.9l0-.06v-.05l-.06-.16-.07-.17-.07-.15-.08-.15-.08-.13-.09-.12-.09-.11-.1-.1-.1-.1-.11-.1-.11-.08-.12-.08-.12-.08-.12-.07-.12-.06-.13-.06-.13-.05-.14,0-.13-.05-.14,0-.15,0-.14,0-.15,0-.15,0h-.16l-.16,0h-1.21l-.06,0h-.08l-.07,0-.07,0-.08,0-.07,0-.08,0-.08,0-.07,0-.08,0-.16.06-.07,0-.08,0-.08,0-.08,0-.07,0-.07,0-.07,0-.07,0-.06,0-.05,0-.06,0,0,0,0,0-.57.31V27.1l.33-.13.11,0,.12-.05.13-.05.14-.06.14-.05.15-.07.16-.06.19-.07.2-.06.21-.05.23,0,.23,0,.25,0,.26,0h1l.24,0,.25,0,.24,0,.23,0,.24.05.23.05.23,0,.23.07.22.07.21.08.21.08.21.09.2.1.19.11.19.11.18.12.18.13.17.13.16.14.16.14.15.16.14.16.13.17.13.17.11.19.11.19.1.2.08.2.1.26v8.1l0,0,0,.05.06,0,.06,0,.07,0,.07,0,.08,0h.11l.1,0,.11,0,.1,0h.1l.09,0h.1l.39.06v1.28h-4V38.22l-.06.07-.12.11ZM159.59,36l-.11.34-.11.28-.13.28-.15.26-.17.25-.18.23-.19.22-.22.2-.22.18-.22.17-.24.16-.24.14-.25.13-.26.12-.26.1-.27.09-.28.08-.28.06-.28,0-.28,0-.28,0h-.87l-.29,0-.28,0-.27-.05-.27-.06-.27-.07-.26-.08-.25-.09-.45-.19V37.24l.64.31.13.05.15,0,.16.05.17,0,.18,0,.2,0,.2,0,.22,0h.62l.2,0,.21,0,.2,0,.2,0,.19-.05.19-.07.18-.07.17-.08.16-.09.16-.1.15-.11.14-.12.12-.12.1-.12.08-.14.07-.15.06-.16,0-.18,0-.19v-.36l0-.14,0-.12,0-.12L157,35.1l-.06-.11-.06-.09-.08-.1-.1-.09-.11-.1-.11-.09-.12-.09-.13-.09-.13-.08-.14-.08-.15-.08L155.6,34l-.17-.07-.17-.08-.17-.08-.18-.07-.18-.07-.18-.08-.19-.07-.19-.07-.2-.08-.19-.09-.19-.08-.18-.1-.18-.09-.18-.1-.18-.1-.17-.11-.16-.11-.16-.12-.16-.13-.14-.13-.14-.14-.13-.14-.13-.16-.11-.16-.11-.19-.09-.19-.07-.2-.05-.22,0-.22,0-.23v-.7l0-.23,0-.21,0-.22.06-.2.07-.2.08-.19.1-.18.09-.18.11-.16.12-.16.12-.15.13-.14.14-.14.15-.12.15-.12.16-.11.16-.1.17-.09.18-.08.18-.08.19-.07.19-.06.19-.06.2,0,.2,0,.2,0,.21,0,.21,0h1.21l.23,0h.22l.21,0,.19,0,.18,0,.17,0,.15,0,.16,0,.14,0,.14,0,.14,0,.12,0,.36.14-.05,1.47-.69-.27-.22-.08-.22-.06-.22-.06-.21,0-.21,0-.21,0-.21,0h-.6l-.18,0-.18,0-.17,0-.16.05-.16.07-.15.07-.14.07-.14.09-.12.1-.12.1-.11.12-.11.13-.1.13-.08.14-.08.16-.06.16,0,.17,0,.18,0,.2,0,.21v.4l0,.08,0,.08,0,.08.06.07.07.07.08.07.11.08.12.08.12.08.13.08.14.07.15.08.16.07.16.08.17.07.18.08.18.07.18.08.19.07.19.08.19.08.2.07.2.09.2.09.2.09.19.1.19.11.19.11.18.11.18.12.17.13.17.14.16.15.15.15.14.17.13.16.13.18.11.19.11.2.09.22.07.23.06.24,0,.25,0,.26v.27l0,.31Zm9.8,0-.11.34-.11.28-.13.28-.15.26-.16.25-.19.23-.19.22-.21.2-.22.18-.23.17-.24.16-.24.14-.25.13-.26.12-.26.1-.27.09-.28.08-.28.06-.28,0-.28,0-.28,0h-.87l-.29,0-.28,0-.27-.05-.27-.06-.27-.07-.25-.08L162,39l-.45-.19V37.24l.64.31.13.05.15,0,.16.05.17,0,.18,0,.2,0,.21,0,.21,0h.62l.2,0,.21,0,.2,0,.2,0,.2-.05.18-.07.18-.07.17-.08.16-.09.16-.1.15-.11.14-.12.12-.12.1-.12.09-.14.07-.15.05-.16,0-.18,0-.19v-.36l0-.14,0-.12,0-.12-.05-.11L166.7,35l-.07-.09-.08-.1-.1-.09-.1-.1-.12-.09-.12-.09-.12-.09-.14-.08-.14-.08-.15-.08L165.4,34l-.17-.07-.17-.08-.17-.08-.18-.07-.18-.07-.18-.08-.19-.07-.19-.07-.2-.08-.19-.09-.19-.08-.18-.1L163,33l-.18-.1-.17-.1-.18-.11-.16-.11-.16-.12-.16-.13-.14-.13-.14-.14-.13-.14-.12-.16-.12-.16-.11-.19-.08-.19-.08-.2,0-.22,0-.22,0-.23v-.7l0-.23,0-.21.05-.22,0-.2.07-.2.09-.19.09-.18.09-.18.11-.16.12-.16.12-.15.13-.14.14-.14.15-.12.15-.12.16-.11.16-.1.17-.09.18-.08.18-.08.19-.07.19-.06.19-.06.2,0,.2,0,.21,0,.2,0,.21,0h1.21l.23,0h.22l.21,0,.19,0,.18,0,.17,0,.16,0,.15,0,.14,0,.14,0,.14,0,.13,0,.35.14-.05,1.47-.69-.27-.22-.08-.22-.06-.21-.06-.22,0-.21,0-.21,0-.21,0h-.59l-.19,0-.18,0-.17,0-.16.05-.16.07-.15.07-.14.07-.14.09-.12.1-.12.1-.11.12-.11.13-.09.13-.09.14-.07.16-.07.16-.05.17,0,.18,0,.2,0,.21v.4l0,.08,0,.08,0,.08.05.07.07.07.09.07.1.08.12.08.12.08.14.08.14.07.14.08.16.07.16.08.17.07.18.08.18.07.19.08.18.07.19.08.19.08.2.07.2.09.21.09.19.09.19.1.19.11.19.11.18.11.18.12.17.13.17.14.16.15.15.15.14.17.13.16.13.18L169,34l.11.2.09.22.08.23.05.24,0,.25,0,.26v.27l0,.31Zm7.07-7.69-.15.05-.15.07-.14.07-.15.09-.13.09-.14.1-.12.11-.12.11-.12.12-.1.12-.11.13-.1.14-.09.14-.09.14-.08.15-.07.16-.07.15-.07.17-.06.17-.05.17,0,.17,0,.16,0,.17,0,.17v.14H180l0-.18v-.18l0-.18,0-.17,0-.18,0-.18,0-.17,0-.16-.06-.16,0-.16-.07-.14-.06-.15-.08-.13-.08-.14-.08-.12-.09-.12-.09-.11-.1-.1-.1-.1-.12-.09-.11-.09-.12-.07-.13-.07-.13-.06-.14-.05-.14-.05-.16,0-.16,0-.17,0h-.36l-.18,0-.17,0-.16,0-.16,0ZM181,38.94l-.34.12-.11,0-.12,0-.13,0-.13.05-.15.06-.15.06-.16.06-.18.06-.21.06-.21.05-.22,0-.23,0-.25,0h-.87l-.34,0-.33,0-.32,0-.32-.05-.31-.07-.3-.09-.29-.09-.29-.11-.27-.12-.27-.14-.25-.16L174,38.6l-.23-.18-.22-.2-.21-.21-.2-.22-.18-.24-.18-.25-.16-.27-.15-.28-.13-.29-.13-.3-.11-.32-.1-.34-.09-.34-.07-.37-.06-.37,0-.39,0-.4v-1.2l0-.35,0-.33.06-.33.06-.33.08-.31.09-.31.1-.3.12-.29.12-.28.14-.28.14-.26.15-.25.17-.25.17-.23.18-.23.2-.21.2-.2.21-.19.22-.18.23-.17.24-.15.25-.14.25-.13.27-.11.27-.1.27-.09.28-.07.28-.05.29,0,.3,0h.62l.31,0,.31,0,.29.06.29.07.27.08.27.11.25.12.25.13.23.15.22.16.21.18.2.18.18.21.18.21.16.23.15.24.13.24.13.26.12.27.1.28.1.29.08.3.08.32.06.31.06.33,0,.34,0,.35,0,.35,0,.37v1.1h-8.28v.36l0,.33,0,.32,0,.3.07.28.08.28.09.26.11.25.12.23.13.21.15.2.16.19.16.17.18.16.2.15.2.13.22.11.23.11.25.09.25.08.27.06.28,0,.3,0,.31,0h.65l.34,0,.36,0,.36-.06.38-.08.84-.2v1.44ZM189.81,27l.15-.07.15-.06.14-.05.14-.05.14-.05.14,0,.14,0,.13,0,.13,0,.12,0,.11,0,.1,0h.21l.42,0,0,1.7-.41,0h-.25l-.09,0-.11,0-.11,0-.11,0-.12,0-.12,0-.12.06-.12.06-.13.07-.13.07-.14.08-.13.09-.14.09-.13.11-.14.11-.13.11-.14.13-.14.13-.13.14-.13.14-.12.15-.12.16-.11.17-.1.18-.1.19-.1.2-.06.15v8.46H185.6V28.28l0-.05-.05,0-.06-.05-.06,0-.07,0-.07,0-.09,0h-.1L185,28l-.1,0-.2,0-.1,0h-.09l-.4-.05V26.48h4v1.41l.13-.08.14-.08.14-.08.15-.08.15-.07.15-.08.14-.07.15-.08.15-.07.15-.07.15-.07.15-.06Zm12.25,9-.11.34-.11.28-.13.28-.15.26-.17.25-.18.23-.19.22-.22.2-.22.18-.22.17-.24.16-.24.14-.25.13-.26.12-.26.1-.28.09-.27.08-.28.06-.28,0-.28,0-.29,0h-.86l-.29,0-.28,0-.27-.05-.27-.06-.27-.07-.26-.08-.25-.09-.45-.19V37.24l.64.31.13.05.15,0,.16.05.17,0,.18,0,.2,0,.2,0,.21,0h.63l.2,0,.21,0,.2,0,.2,0,.19-.05.19-.07.18-.07.17-.08.16-.09.16-.1.15-.11.14-.12.12-.12.1-.12.08-.14.07-.15.06-.16,0-.18,0-.19v-.36l0-.14,0-.12,0-.12-.05-.11-.06-.11-.06-.09-.08-.1-.1-.09-.11-.1-.11-.09-.12-.09-.13-.09-.13-.08-.14-.08-.15-.08-.16-.08L197.9,34l-.17-.08-.17-.08-.18-.07-.18-.07-.18-.08-.19-.07-.2-.07-.19-.08-.19-.09-.19-.08-.18-.1L195.7,33l-.18-.1-.18-.1-.17-.11-.17-.11-.15-.12-.16-.13-.14-.13-.14-.14-.13-.14-.13-.16-.11-.16-.11-.19-.09-.19-.07-.2-.05-.22,0-.22,0-.23v-.48l0-.22,0-.23,0-.21.05-.22.06-.2.07-.2.08-.19.09-.18.1-.18.11-.16.11-.16.13-.15.13-.14.14-.14.15-.12.15-.12.16-.11.16-.1.17-.09.18-.08.18-.08.18-.07.2-.06.19-.06.2,0,.2,0,.2,0,.21,0,.21,0h1.21l.23,0h.22l.2,0,.2,0,.18,0,.16,0,.16,0,.16,0,.14,0,.14,0,.13,0,.13,0,.36.14,0,1.47-.69-.27-.22-.08L200,27.8l-.22-.06-.21,0-.21,0-.21,0-.21,0h-.6l-.18,0-.18,0-.17,0-.16.05-.16.07-.15.07-.15.07-.13.09-.12.1-.12.1-.11.12-.11.13-.1.13-.08.14-.08.16-.06.16,0,.17,0,.18,0,.2v.61l0,.08,0,.08,0,.08.06.07.07.07.08.07.11.08.12.08.12.08.13.08.14.07.15.08.16.07.16.08.17.07.18.08.18.07.18.08.19.07.19.08.19.08.2.07.2.09.2.09.2.09.19.1.19.11.19.11.18.11.17.12.18.13.17.14.15.15.15.15.15.17.13.16.12.18.12.19.11.2.09.22.07.23.06.24,0,.25,0,.26v.27l0,.31Zm6.61,2h1.05l.3.07v1.26h-4V28.75h-2.33V26.48H206V22.17h0l0,0-.05,0-.06,0h-.94l-.36-.05V20.72h3.95v5.76h2.38v2.27h-2.4v9.14h0l0,0,0,0,0,0,0,0Zm9.86.11h.35l.18,0,.17,0,.17-.06.17-.06.17-.08.17-.09.17-.11.16-.11.15-.12.16-.13.14-.14.14-.14.14-.16.13-.16.12-.18.12-.18.12-.19.1-.2.1-.2.09-.22.09-.22.08-.23.07-.23.07-.24.05-.24,0-.25,0-.25,0-.26V32.52l0-.26,0-.25,0-.25-.06-.25-.06-.24-.07-.23-.08-.24-.09-.22-.09-.22-.1-.21-.11-.2-.11-.19-.12-.18-.12-.18-.13-.17-.14-.16-.14-.15-.15-.14-.15-.13-.15-.12-.16-.11-.17-.1-.17-.09-.17-.08-.17-.07-.17,0-.17,0-.18,0-.17,0h-.4l-.21,0-.21,0-.19.05-.19.06-.18.07-.18.09-.17.11-.17.12-.16.13-.16.13-.15.15-.14.15-.14.16-.13.17-.12.18-.12.19-.11.2-.1.19-.09.21-.09.21-.08.22-.08.22-.06.23-.06.23-.05.23-.05.23,0,.22,0,.23,0,.23v1l0,.26,0,.25,0,.25.05.24.06.24.07.24.08.23.08.22.09.21.1.2.11.2.11.19.12.18.12.18.13.16.14.16.14.14.14.14.15.13.16.12.16.11.17.11.17.09.17.08.17.06.17.06.18,0,.18,0h.37Zm5.84-7.54,0,.16,0,.17,0,.17,0,.17,0,.17,0,.18,0,.18,0,.19,0,.18v1.44l0,.09v.1l0,.19v.1l0,.11v.32l0,.1,0,.11v.11l0,.11,0,.1,0,.11,0,.1,0,.1,0,.1,0,.09,0,.08,0,.09,0,.07,0,.08-.07.16-.07.15-.08.16-.08.16-.09.16-.1.16-.1.17-.11.16-.11.17-.12.17-.14.17-.13.16-.15.16-.15.15-.16.15-.17.15-.18.14-.18.14-.19.13-.2.13-.21.12-.21.11-.22.1-.23.1-.24.09-.25.08-.26.07-.27.05-.27,0-.28,0-.29,0h-.85l-.27,0-.26,0-.26,0-.25-.06-.24-.06-.24-.07-.23-.08-.22-.09-.21-.09-.21-.1-.21-.11-.19-.12-.19-.12-.19-.14-.18-.13-.16-.15-.17-.15-.16-.16-.15-.16-.14-.17-.14-.17-.13-.19-.12-.18-.12-.19-.11-.19-.1-.2-.1-.19-.09-.2-.09-.21-.08-.2-.05-.16-.06-.15,0-.16-.05-.16,0-.17,0-.17,0-.17,0-.17,0-.18,0-.18,0-.19v-.19l0-.19V32.47l0-.23,0-.22,0-.21,0-.21,0-.21,0-.2.05-.2,0-.19.05-.19.06-.19.06-.19.06-.18.07-.18.08-.18.17-.37.2-.36.23-.34.24-.32.27-.31.29-.28.31-.28.34-.25.18-.12.18-.11.2-.11.19-.09.21-.09.2-.09.22-.07.21-.06.23-.06.23-.05.23,0,.24,0,.24,0,.25,0h1.06l.26,0,.25,0,.25,0,.24.05.24,0,.23.07.22.07.22.09.22.09.2.1.2.11.19.12.19.13.18.14.33.28.31.3.28.32.26.34.24.36.21.38.19.39.16.4.06.17,0,.16.05.16Zm3.2,7.49.11,0,.1,0,.11,0h.1l.09,0,.07,0,.07,0,.06,0,.05,0,.06-.05,0,0V28.82H226V26.48h2.45v-.05l0-.37,0-.37,0-.35,0-.33,0-.32.06-.3.06-.29.07-.27.07-.26.08-.25.09-.24.1-.23.1-.22.1-.2.12-.2.12-.18.12-.17.13-.17.13-.15.14-.14.15-.14.15-.12.15-.11.16-.1.15-.1.16-.09.16-.08.17-.07.16-.07.17-.06.17-.06.17,0,.17-.05.17,0,.17,0,.17,0,.18,0,.17,0,.17,0,.17,0,.24,0,.26,0H234l.16,0,.16,0,.56-.06V21.4l-.49,0h-.69l-.16,0-.16,0-.14,0-.14,0-.14.05-.13.06-.14.07-.14.09-.14.1-.13.11-.13.13-.13.15-.12.17-.12.19-.12.21-.12.23-.11.26-.1.28,0,.14-.05.15,0,.16,0,.16,0,.18,0,.18,0,.19,0,.2,0,.21,0,.21,0,.22,0,.23v.65h2.76v2.34h-2.76V39.48h-4.05V38.17l.4-.06h.09l.1,0Zm10,0,.1,0,.11,0,.11,0h.1l.08,0,.08,0,.06,0,.06,0,.06,0,.06-.05,0,0V28.82H236V26.48h2.46v-.05l0-.37,0-.37,0-.35,0-.33.05-.32.06-.3.06-.29.07-.27.07-.26.08-.25.09-.24.09-.23.1-.22.11-.2.12-.2.11-.18.13-.17.13-.17.13-.15.14-.14.15-.14.15-.12.15-.11.16-.1.15-.1.16-.09.16-.08.16-.07.17-.07.17-.06.17-.06.17,0,.17-.05.17,0,.17,0,.17,0,.17,0,.18,0,.17,0,.17,0,.23,0,.27,0H244l.17,0,.16,0,.56-.06V21.4l-.5,0h-.68l-.16,0-.16,0-.14,0-.14,0-.14.05-.14.06-.13.07-.14.09-.14.1-.13.11-.13.13-.13.15-.12.17-.13.19-.11.21-.12.23-.11.26-.1.28-.05.14,0,.15,0,.16,0,.16,0,.18,0,.18,0,.19,0,.2,0,.21,0,.21v.22l0,.23v.65h2.76v2.34H241V39.48h-4.05V38.17l.4-.06h.09l.09,0ZM127.68,53.66V53.4l0-.13,0-.13,0-.13,0-.13,0-.13,0-.12,0-.13-.06-.12-.06-.11-.07-.12-.07-.11-.08-.1-.08-.11-.09-.1-.1-.09-.1-.09-.1-.09-.12-.08-.12-.07-.12-.07-.13-.07-.14-.06-.14-.06-.14,0-.15,0-.16,0-.16,0-.17,0h-3.82v5.77h3.52l.17,0,.17,0,.16,0,.16,0,.15,0,.15,0,.15-.06.14-.06.14-.07.13-.08.12-.08.12-.08.11-.09.11-.1.11-.1.1-.1.09-.11.08-.12.09-.12.07-.12.07-.13.07-.14,0-.13.05-.14,0-.15,0-.15,0-.15V54l0-.16v-.17Zm1.77,12.28,0,0,0,0,0,0,0,0,0,0,.06,0,0,0,.06,0,.06,0,.05,0,.06,0,.06,0,.06,0,.06,0h.61l.47-.13v1.4h-3.33l-4.39-8.67h-2.24V67.6h-2.48V50.5l0,0,0,0,0,0,0,0h-.7l-.4-.05V48.84h7.84l.28,0,.27,0,.27,0,.26.05.25.07.25.08.24.09.22.1.22.11.21.12.21.13.19.14.19.15.17.15.17.17.16.17.15.18.14.19.12.19.12.21.11.2.1.22.09.22.08.23.07.23.05.24,0,.24,0,.24,0,.24,0,.25v.72l0,.24,0,.23L130,55l0,.23-.07.23-.08.23-.08.22-.1.22-.1.21-.12.21-.12.2-.13.2-.14.18-.14.19-.16.18-.16.16-.18.16-.18.15-.19.15-.2.13-.2.12-.21.12-.22.1-.23.09-.23.08-.24.06-.24.05-.2,0,3.37,7v0l0,0,0,0,0,0Zm7.06-9.49-.15,0-.15.07-.14.08-.15.08-.13.1-.13.1-.13.1-.12.11-.12.12-.1.12-.11.13-.1.14-.09.14-.09.15-.08.15-.07.15-.07.16-.07.16-.06.17,0,.17,0,.17,0,.17,0,.17,0,.16v.15H140l0-.18v-.18l0-.18,0-.18,0-.18,0-.17-.05-.17,0-.17-.05-.16-.06-.15-.07-.15-.06-.14-.08-.14-.08-.13-.08-.13-.09-.11-.09-.11L139,57l-.1-.1-.11-.09-.12-.08-.12-.08-.13-.07-.13-.06-.14-.05-.14,0-.16,0-.16,0H137l-.17,0-.16,0-.16.05ZM141,67.06l-.34.13-.11,0-.12,0-.13,0-.13.05-.15,0-.15.06-.16.06-.18.07-.2,0-.22,0-.22,0-.23,0-.25,0h-.87l-.34,0-.33,0-.32,0-.32-.06-.31-.07-.3-.08-.29-.1L135,67.3l-.27-.12L134.5,67l-.25-.15-.24-.17-.24-.18-.22-.2-.21-.21-.2-.22-.18-.24-.17-.25-.17-.27-.14-.27-.14-.3-.13-.3L132.1,64l-.1-.33-.09-.35-.07-.36-.05-.38,0-.39,0-.4v-1.2l0-.34,0-.34.05-.33.06-.32.08-.32.09-.31.1-.3.12-.29.12-.28.14-.27.14-.27.16-.25.16-.24.17-.24.18-.22.2-.22.2-.2.21-.19.22-.18.23-.16.24-.16.25-.14.25-.13.27-.11.27-.1.27-.09.28-.06.28-.06.29,0,.3,0h.62l.31,0,.31,0,.29.06.29.07.28.09.26.1.26.12L140,55l.23.15.22.16.21.18.2.19.18.2.18.21.16.23.15.24.14.25.12.26.12.27.1.28.1.29.08.3.08.31.06.32.06.33,0,.33,0,.35,0,.36,0,.36v1.1H134.2V62l0,.33,0,.32.05.3.07.29.08.27.09.26.11.25.12.23.14.22.14.2.16.18.16.18.19.15.19.15.2.13.22.12.23.1.25.09.25.08.27.06.29,0,.29,0,.31,0h.65l.34,0,.36,0,.36-.07.38-.08.84-.2v1.44Zm9.57-1.3h.23l.22,0,.21,0,.19,0,.19-.06.18-.07.16-.08.16-.1.16-.11.15-.11.14-.13.13-.13.13-.14.12-.14.11-.15.11-.16.1-.17.09-.18.08-.18.08-.18.07-.19.06-.19.06-.2.05-.21,0-.21,0-.21,0-.21,0-.21,0-.21V60.34l0-.25,0-.25,0-.25,0-.24,0-.23,0-.23-.05-.22-.06-.2-.07-.2-.07-.19-.08-.18-.09-.17-.09-.16-.1-.16-.1-.14-.11-.13-.12-.13-.13-.12-.13-.11-.15-.1-.15-.09-.15-.09-.17-.07-.17-.06-.19,0-.2,0-.21,0-.22,0h-.48l-.23,0-.22,0-.2,0-.19.06-.18.07-.16.09-.16.09-.14.11-.15.12-.13.13-.13.14-.12.14-.11.15-.1.16-.09.17-.09.18-.08.19-.08.19-.07.2-.06.2,0,.21-.05.21,0,.22,0,.23,0,.22,0,.23,0,.22,0,.22v1.3l0,.22,0,.21,0,.22,0,.21,0,.22,0,.2.05.2.06.2.07.19.07.18L148,64l.08.17.09.17.1.15.1.15.11.14.11.13.13.13.13.12.14.11.14.1.14.09.16.07.16.07.18.06.18,0,.2,0,.21,0Zm5.69,2.76-.07.35-.08.34-.1.33-.17.44-.19.4-.22.37-.24.36-.27.32-.3.29-.32.27-.34.24-.37.21-.39.18-.41.16-.44.12-.45.1-.48.07-.5,0h-1.59l-.25,0-.25,0-.23,0-.23,0-.22,0-.21,0-.19,0-.18,0-.16,0-.16,0-.14-.05-.35-.13V71l.59.25.09,0,.1,0,.1,0,.11,0,.1,0,.12,0,.12,0h1l.15,0h.67l.15,0,.14,0,.15,0,.15,0,.15,0,.14,0,.15,0,.14,0,.15-.05.14-.06.14-.06.14-.07.14-.07.13-.07.14-.08.13-.08.13-.09.12-.1.13-.09.11-.1.12-.11.1-.1L153,70l.1-.11.09-.12.08-.11,0-.09.05-.1,0-.11.05-.11,0-.12,0-.12,0-.13,0-.13,0-.14,0-.15,0-.14,0-.15,0-.15,0-.15,0-.16,0-.16,0-.17v-.16l0-.17v-.17l0-.17v-.64l-.11.14-.22.25-.23.24-.25.2-.26.19-.27.15-.27.14-.28.11-.29.1-.29.07-.31,0-.3,0h-.7l-.37,0-.35,0-.34-.07-.33-.09-.31-.11-.29-.13-.28-.16-.26-.16-.24-.18-.24-.19-.22-.2-.2-.21-.2-.22-.18-.24-.17-.24-.16-.25-.14-.26-.13-.26-.12-.27-.11-.28-.1-.28-.08-.28-.08-.29L145.2,63l0-.28,0-.28,0-.28,0-.27,0-.27V60.43l0-.34,0-.34,0-.32.06-.32.06-.31.07-.31.09-.29.1-.29.1-.28.12-.27.13-.26.14-.24.16-.24.16-.22.18-.22.19-.2.2-.19.22-.18.22-.16.23-.15.25-.14.26-.13.27-.11.28-.1.29-.08.31-.07.31-.05.33,0,.34,0h1.59l.12,0H152l.12,0,.12,0,.12,0,.12,0,.12,0,.12,0,.12,0,.12,0,.12.06.11.05.12.06.11.07.12.07.11.07.11.08.09.07V54.6h4V56l-.38.06-.08,0h-.09l-.09,0-.1,0-.1,0-.1,0-.1,0-.09,0-.08,0-.07,0-.06,0-.06,0-.06,0,0,0V67l0,.39,0,.38,0,.38-.06.36Zm6.58-19.68H163l.14,0,.14,0,.13.05.13.07.12.08.11.1.1.1.09.12.08.11.07.13.05.13,0,.13,0,.14v.57l0,.14,0,.14-.05.13-.07.12-.08.12-.09.11-.11.1-.11.08-.12.08-.12.06-.14.05-.13,0-.15,0h-.29l-.15,0-.14,0-.14,0-.13-.07-.12-.07-.12-.09-.11-.09-.09-.11-.09-.12-.08-.12-.06-.14,0-.13,0-.14,0-.15v-.29l0-.15,0-.14,0-.13.06-.13.08-.13.08-.11.1-.12.1-.1.12-.09.13-.08.13-.07.14-.05.14,0,.15,0Zm-1.29,7.49,0,0,0,0-.06,0-.06,0-.07,0-.07,0-.09,0-.1,0-.11,0-.1,0-.2,0-.1,0h-.09l-.4,0V54.6h4v13h-2.46V56.33Zm11.59,9.91h.18l.18,0,.18,0,.17,0,.17-.05.17-.07.17-.08.17-.09.16-.1.17-.11.15-.13.15-.12.15-.14.14-.15.14-.16.13-.16.12-.18.12-.18.11-.19.11-.19.1-.21.09-.21.09-.22.08-.23.07-.24.06-.24.06-.24,0-.25,0-.25,0-.26V60.64l0-.25,0-.26,0-.25-.06-.24-.06-.24-.07-.24-.08-.23-.09-.23-.09-.21-.1-.21-.11-.2-.11-.2-.12-.18-.12-.18-.13-.17-.14-.15-.14-.15-.15-.14-.15-.13-.15-.12-.17-.12-.16-.1-.17-.09-.17-.08-.17-.06-.17-.06-.18,0-.17,0-.18,0h-.39l-.22,0-.2,0-.19.05-.19.06-.18.08-.18.09-.17.1-.17.12-.16.13-.16.14L171,57l-.14.15-.14.17-.13.17-.12.18-.12.18-.11.2-.1.2-.1.2-.08.21-.09.22-.07.22-.07.23-.05.23-.06.23,0,.23,0,.23,0,.22,0,.23v1l0,.26,0,.25,0,.25.05.25.06.24.07.23.08.23.08.22.09.21.1.21.1.19.12.19.11.19.13.17.13.16.13.16.15.15.14.14.15.12.16.13.16.11.17.1.17.09.17.08.17.06.17.06.18,0,.18,0,.18,0ZM179,58.7l0,.17.05.16,0,.17,0,.17,0,.18,0,.17,0,.19,0,.18,0,.19v1.34l0,.09v.19l0,.2v.1l0,.1v.21l0,.11v.11l0,.11,0,.1v.11l0,.11,0,.1,0,.11,0,.1,0,.09,0,.09,0,.09,0,.08,0,.08,0,.07-.06.16-.08.15-.07.16-.09.16-.09.16-.09.16-.1.17-.11.17-.11.17-.13.17-.13.16-.14.16-.14.16-.15.15-.16.15-.17.15-.18.15-.18.13-.2.14-.19.12-.21.12-.21.11-.22.1-.23.1-.24.09-.25.08-.26.07-.27.05-.27,0-.28,0h-1.15l-.26,0-.26,0-.26,0-.25,0-.24-.06-.24-.08-.23-.08-.22-.08-.22-.1-.21-.1-.2-.11-.2-.12-.19-.12-.18-.13-.18-.14-.17-.14L169,66.3l-.16-.15-.15-.17-.14-.17-.14-.17-.13-.18-.12-.19-.12-.19-.11-.19-.11-.19-.09-.2-.1-.2-.08-.21-.08-.2-.05-.15-.06-.16,0-.16,0-.16,0-.17,0-.16,0-.17,0-.18,0-.18,0-.18,0-.19,0-.18V60.59l0-.22,0-.22,0-.22,0-.21,0-.21,0-.2,0-.2.05-.19.06-.19.05-.19.07-.18.06-.18.07-.18.08-.18.17-.38.2-.35.23-.34.24-.33.27-.3.29-.29.31-.27.34-.25.18-.13.18-.11.19-.1.2-.1.2-.09.21-.08.22-.07.21-.07.23-.06.23,0,.23,0,.24,0,.24,0,.25,0h1.05l.27,0,.25,0,.25,0,.24,0,.24.06.23.06.22.08.22.08.21.09.21.1.2.11.19.12.19.13.18.14.33.28.31.31.28.32.26.34.24.35.21.38.19.39.16.41.06.16.05.16.05.16Zm11.16-.62-.1-.28-.12-.25-.14-.23-.15-.2-.17-.17-.19-.15-.22-.11-.25-.1-.27-.07-.31,0h-.57l-.22,0-.21,0-.2,0-.18.06-.17.07-.16.07-.16.09-.14.11-.15.11-.13.11-.13.12-.12.13-.12.14-.1.14-.1.15-.09.15-.09.17-.08.16-.07.17-.06.18-.06.18,0,.18,0,.19,0,.2,0,.19,0,.2,0,.19,0,.18v7.35h-2.44V56.38l0-.05-.05,0-.06,0-.06,0-.07,0-.07,0-.09,0-.1,0-.21,0-.2,0-.1,0h-.09L180.7,56V54.6h3.94V56l.05-.06.11-.11.11-.1.11-.11.12-.1.12-.1.13-.09.14-.09.15-.09.15-.09L186,55l.17-.07.17-.07.17-.06.18-.06.19-.06.19,0,.21,0,.21,0,.21,0,.23,0h1l.27,0,.26,0,.25,0,.24,0,.23,0,.22.07.22.07.2.09L191,55l.19.11.17.11.16.12.15.14.15.15.24.3.21.34.18.37.14.39.11.43.08.46.05.48V65.9l0,0,.06,0,.05,0,.06,0,.07,0,.07,0,.09,0,.1,0,.11,0,.11,0,.1,0h.1l.09,0H194l.4.06v1.26h-4V59.45l0-.38,0-.35-.06-.33-.09-.31ZM127.72,81.93v-.4l0-.13,0-.13,0-.12,0-.13,0-.13,0-.12-.06-.12-.06-.12-.06-.11-.08-.11-.08-.11-.08-.1L127,80l-.09-.09-.11-.09-.1-.09-.11-.08-.12-.08-.13-.07-.13-.06-.13-.07-.15-.05-.14,0-.15,0-.16,0-.16,0-.17,0h-3.81v5.77h3.52l.17,0,.16,0,.16,0,.16,0,.16-.05.15,0,.14-.06.14-.06.14-.07.13-.07.12-.08.12-.08.12-.09.11-.1.1-.1.1-.11.09-.11.09-.11.08-.12.07-.13.08-.13.06-.13.06-.14,0-.14,0-.14,0-.15,0-.15,0-.16v-.33Zm1.77,12.28,0,0,0,0,0,0,0,0,0,0,.05,0,.06,0,.05,0,.06,0,.06,0,.06,0,.06,0,.06,0h.06l.06,0h.54l.48-.14v1.4h-3.34l-4.39-8.66h-2.23v8.69h-2.49V78.77l0,0,0,0,0,0H118l-.41,0V77.11h8.12l.28,0,.27,0,.26.05.25.07.24.08.24.09.23.1.22.11.21.12.2.13.2.13.18.15.18.16.16.16.16.17.15.19.14.18.13.2.12.2.11.21.09.22.09.22.08.23.07.23.06.23,0,.24,0,.24,0,.25v1l0,.23,0,.24,0,.23-.06.23-.06.24-.08.22-.09.23-.1.22-.1.21-.11.21-.12.2-.13.19-.14.19-.15.18-.16.18-.16.17-.17.16-.19.15-.18.14-.2.13-.21.13-.21.11-.22.11-.23.09-.23.07-.23.07-.24.05-.2,0,3.36,7,0,0v0l0,0,0,0Zm9.62-11.41.17,0,.18,0h.85l.3,0,.29,0,.28,0,.26.06.26.08.24.09.23.1.21.11.2.13.19.13.18.15.17.15.16.17.15.17.13.19.12.19.12.2.1.21.1.22.08.22.08.24.06.24.06.25,0,.25,0,.26,0,.26,0,.26,0,.27v6.74l0,0,.06.05.06,0,.06,0,.06,0,.08,0,.08,0,.1,0,.11,0h.11l.1,0,.1,0h.19l.39.06v1.26h-4v-8.1l0-.18v-.18l0-.17,0-.17,0-.17,0-.17,0-.15,0-.15,0-.14-.05-.14-.05-.13-.06-.13-.06-.12-.07-.11-.07-.11-.08-.1-.09-.09-.09-.09-.1-.08-.11-.08-.12-.07-.12-.06-.13-.06-.15,0-.16,0-.17,0-.19,0-.19,0h-.44l-.21,0-.2,0-.19,0-.17,0-.17.07-.16.07-.16.09-.15.1-.14.11-.13.11-.13.12-.12.13-.11.13-.11.14-.1.15-.09.16-.09.16-.08.17-.07.17-.07.17-.06.18-.06.19,0,.19-.05.2,0,.2,0,.19,0,.19,0,.19,0,.2v7.18h-2.53l0-17.08,0,0-.05,0-.06,0-.06,0-.06,0-.08,0-.08,0-.11,0-.1,0-.11,0-.2,0h-.09l-.09,0-.4-.05V77.11h4v7.27l.1-.11.12-.11.12-.11.12-.11.12-.1.13-.1.13-.1.14-.09.14-.09.14-.08.15-.08.15-.08.15-.07.16-.06.16-.06.16-.06.17,0,.17,0,.17,0,.17,0Zm13.13,1.91-.15.06-.15.07-.15.07-.14.09-.14.09-.13.1-.13.11-.12.11-.11.11-.11.13-.1.13-.1.13-.09.15-.09.14-.08.15-.08.16-.07.15-.06.17-.06.16-.05.17,0,.17,0,.17,0,.17,0,.17,0,.14h5.77v-.18l0-.18,0-.18,0-.17,0-.18,0-.18,0-.17-.05-.16-.05-.16-.06-.16-.06-.14-.07-.15-.07-.13-.08-.14-.08-.12-.09-.12-.09-.11-.1-.1-.11-.1-.11-.09-.12-.09-.12-.08-.12-.06-.13-.06-.14-.06-.15,0-.15,0-.17,0-.17,0h-.36l-.17,0-.17,0-.17,0-.15,0Zm4.48,10.62-.34.12-.11,0-.12.05-.12,0-.14,0-.14.06-.15,0-.16.07-.19.06-.2.06-.21,0-.22,0-.24,0-.24,0h-.88l-.33,0-.33,0-.33,0-.31,0-.31-.07-.3-.09-.29-.09-.29-.11-.28-.13-.26-.13-.26-.16-.24-.16-.23-.19-.22-.19-.21-.21-.2-.23-.19-.23-.17-.25-.16-.27-.15-.28-.14-.29-.12-.31-.12-.31-.1-.34-.08-.34-.07-.37-.06-.37,0-.39,0-.4,0-.42v-.43l0-.35,0-.35,0-.33.05-.33.07-.33.07-.31.1-.31.1-.3.11-.29.13-.29.13-.27.15-.26.15-.25.16-.25.18-.23.18-.23.19-.21.21-.2.21-.19.22-.18.23-.17.24-.15.24-.14.26-.13.26-.12.27-.1.28-.08.28-.07.28,0,.29,0,.29,0h.62l.32,0,.3,0,.3,0,.28.08.28.08.27.11.25.12.24.13.23.15.23.16.2.18.2.18.19.21.17.21.16.23.15.23.14.25.13.26.11.27.11.28.1.29.08.3.07.31.07.32.05.33,0,.34,0,.35,0,.35,0,.37v1.1h-8.29v.36l0,.33,0,.31,0,.31.06.28.08.28.1.26.11.24.12.24.13.21.14.2.16.19.17.17.18.16.19.14.21.14.22.11.23.11.24.09.26.08.27.06.28.05.3,0,.3,0h.65l.35,0,.35,0,.37-.06.38-.08.83-.21v1.45Zm5.83-18.22h.14l.15,0,.14,0,.13,0,.13.07.12.08.11.09.1.11.09.11.08.12.07.12.05.13,0,.14,0,.13,0,.14v.29l0,.15,0,.14,0,.13-.06.13-.06.12-.08.12-.1.11-.1.1-.11.09-.12.08-.13.06L163,80l-.14,0-.14,0h-.29l-.15,0-.14,0L162,80l-.13-.06-.12-.07-.12-.09-.11-.1-.1-.11-.08-.12-.08-.12-.06-.13,0-.14,0-.14,0-.14v-.3l0-.14,0-.14,0-.14.06-.13.07-.12.09-.12.09-.11.11-.11.12-.09.12-.08.13-.06.14-.06.15,0,.15,0Zm-1.29,7.48,0,0-.06,0,0,0-.07,0-.06,0-.07,0-.09,0-.1,0-.11,0h-.11l-.2,0h-.18l-.4-.06V82.87h4v13h-2.46V84.59Zm14.43,1.76-.1-.28-.12-.26-.14-.23-.15-.2-.17-.17-.19-.14L174.6,85l-.25-.09-.28-.07-.3,0-.34,0h-.23l-.22,0-.21,0-.2,0-.18,0-.17.07-.16.08-.16.09-.15.1-.14.11-.14.12-.12.12-.12.13-.12.13L171,86l-.1.15-.09.15-.09.16-.08.17-.07.17-.06.17-.06.18-.05.19,0,.19,0,.19,0,.2,0,.19,0,.19,0,.19v7.35h-2.44V84.64l0,0,0,0-.06,0-.06,0-.07,0-.07,0-.09,0-.1,0-.21,0-.2,0h-.1l-.09,0-.4,0V82.87h4v1.39l0-.05.11-.11.1-.11.12-.1.12-.1.12-.1.13-.1.14-.09.15-.09.15-.08.15-.08.17-.07.16-.07L172,83l.18-.06.19,0,.19-.05.21,0,.21,0,.21,0,.22,0h.76l.27,0,.27,0,.26,0,.25,0,.24,0,.23.06.22.06.22.08.2.08.19.1.19.1.17.12.16.12.15.13.15.15.24.3.21.34.18.37.14.4.11.43.08.45,0,.48v7.5l0,0,.06.05,0,0,.06,0,.07,0,.07,0,.09,0,.1,0,.11,0h.1l.11,0,.09,0h.19l.4.06v1.26h-4V87.72l0-.38,0-.36-.07-.32-.08-.31Zm9.69,8,.07,0,.08,0,.11,0,.1,0h.11l.1,0,.1,0h.19l.39.06v1.24h-4V78.76l0,0,0,0-.06,0-.06,0-.07,0-.07,0-.09,0-.1,0-.11,0-.1,0-.2,0h-.1l-.09,0-.39-.05V77.11h4V94.17l0,0,.05.05.06,0,.06,0,.07,0ZM196,89.67h-1.28l-.23,0-.23,0-.24,0-.22,0-.22,0-.21,0-.2,0-.2,0-.19.05-.19.06-.17.07-.17.07-.16.08-.15.09-.14.09-.13.1-.12.11-.12.12-.11.12-.09.13-.08.13-.07.15-.05.16,0,.17,0,.18,0,.2v.47l0,.23,0,.22.06.19.08.17.09.16.1.13.12.13.14.11.15.1.16.08.17.07.18.05.2,0,.2,0h.51l.27,0,.25,0,.23-.05.21-.06.19-.08.18-.09.16-.1.15-.12.14-.12.14-.13.12-.13.11-.14.1-.14.09-.15.08-.16.07-.16.06-.16.06-.17.05-.17,0-.16,0-.17,0-.17,0-.18V89.67Zm-.15,5.12-.12.11-.11.11-.12.1-.13.1-.13.09-.13.09-.13.09-.14.08-.14.08-.14.07-.14.06-.14.07-.15,0L194,96l-.15,0-.15,0-.15,0-.15,0-.15,0-.15,0-.16,0h-.62l-.31,0-.3,0-.28-.05-.27-.06-.25-.07-.24-.09-.22-.11-.2-.11-.19-.11-.18-.13-.16-.13-.16-.13-.15-.14-.13-.15-.13-.16-.11-.16-.1-.15-.09-.16-.08-.16-.07-.17-.07-.16,0-.17,0-.17,0-.15,0-.15,0-.14,0-.14v-.88l0-.36.06-.35.08-.33.11-.31.14-.29L189,90l.19-.24.2-.23.21-.2.22-.19.24-.18.24-.16.26-.14.27-.13.28-.12.29-.1.29-.08.29-.08.3-.07.31-.06.31,0,.32,0,.33,0,.32,0,.32,0,.31,0H196V86.18l-.06-.16-.07-.17-.07-.16-.08-.14-.08-.13-.09-.12-.09-.11-.1-.11-.11-.09-.11-.1-.11-.08-.11-.08-.12-.08-.12-.07-.13-.06-.12-.06-.14,0-.13,0-.14,0-.14,0-.14,0-.15,0-.14,0-.16,0h-.16l-.15,0h-1.28l-.07,0-.07,0-.08,0-.07,0-.08,0-.07,0-.08,0-.08,0-.07,0-.16.06-.08,0-.08,0-.07,0-.08,0-.07,0-.08,0-.07,0-.06,0-.06,0-.06,0,0,0-.05,0,0,0-.56.31V83.49l.32-.13.12,0,.12,0,.12-.05.14-.06.14-.06.16-.06.16-.06.18-.07.21-.06.21,0,.22,0,.24,0,.24,0,.26,0h1l.25,0,.24,0,.24,0,.24,0,.23,0,.24,0L195,83l.22.07.22.07.22.08.21.08.2.09.2.1.2.11.19.11.18.12.17.12.17.14.17.14.15.14.15.15.15.17.13.17L198,85l.12.19.11.19.09.2.09.2.09.26v8.1l0,0,.06,0,0,0,.06,0,.07,0,.07,0,.09,0h.1l.11,0,.1,0,.11,0h.09l.1,0h.09l.4.06v1.28h-4V94.61l-.06.06-.11.12Zm14.77-8.44-.1-.28-.12-.26-.14-.23-.15-.2-.17-.17-.19-.14-.22-.12-.25-.09-.27-.07-.31,0-.34,0h-.23l-.22,0-.21,0-.2,0-.18,0-.17.07L207,85l-.16.09-.14.1-.15.11-.13.12-.13.12-.12.13-.11.13L206,86l-.1.15-.09.15-.09.16-.08.17-.07.17-.06.17-.06.18-.05.19,0,.19,0,.19,0,.2,0,.19,0,.19,0,.19v7.35h-2.44V84.64l0,0,0,0-.06,0-.06,0-.07,0-.07,0-.09,0-.1,0-.21,0-.2,0h-.1l-.09,0-.39,0V82.87h3.94v1.39l0-.05.11-.11.11-.11.11-.1.12-.1.12-.1.13-.1.14-.09.15-.09.15-.08.15-.08.17-.07.17-.07L207,83l.18-.06.19,0,.19-.05.21,0,.21,0,.21,0,.23,0h.75l.28,0,.26,0,.26,0,.25,0,.24,0,.23.06.23.06.21.08.2.08.19.1.19.1.17.12.16.12.16.13.14.15.24.3.21.34.18.37.14.4.11.43.08.45,0,.48v7.5l0,0,.06.05,0,0,.07,0,.06,0,.07,0,.09,0,.1,0,.11,0h.11l.1,0,.1,0h.18l.4.06v1.26h-4V87.72l0-.38-.05-.36-.06-.32-.09-.31ZM222,94h.22l.2,0,.2,0,.19,0,.18-.06.16-.07.16-.09.15-.1.15-.11.15-.12.13-.12.13-.14.12-.14.12-.15.1-.16.1-.16.1-.18.08-.18.08-.18.08-.19.06-.19.06-.2.06-.2,0-.21,0-.21,0-.21,0-.21,0-.21,0-.21v-1l0-.2v-.21l0-.2,0-.21,0-.21,0-.21,0-.21,0-.2-.06-.2-.06-.19-.07-.19-.08-.19-.09-.17-.09-.18-.1-.17-.11-.15-.11-.15-.13-.14-.12-.14-.14-.13-.14-.12-.15-.11-.15-.09-.16-.09-.17-.07-.18-.06-.19,0-.2,0-.22,0h-.46l-.22,0-.22,0-.2,0-.18.06-.17.06-.17.08-.15.09-.14.11-.15.11-.13.12-.13.13-.11.14-.12.14-.1.16-.1.16-.08.17-.09.18-.07.18-.07.19-.07.19-.05.2-.05.2,0,.21,0,.22,0,.21,0,.22,0,.21,0,.21V89.9l0,.21,0,.22,0,.21,0,.22,0,.21,0,.21.05.21.05.2.07.19.07.18.07.19.09.17.08.18.1.16.11.15.11.15.11.14.13.13.14.12.14.12.15.1.15.1.16.08.17.07.19.06.2,0,.21,0,.22,0Zm1.62,1.65-.28.11-.3.08-.3.06-.32.05-.32,0h-.66l-.31,0-.31,0-.3-.06-.28-.07-.28-.1-.27-.1-.27-.13-.25-.14-.24-.15-.22-.16-.22-.18-.21-.18-.2-.2-.19-.21-.17-.23-.17-.23-.15-.24-.14-.25-.14-.26-.12-.27-.11-.28-.1-.29-.09-.3-.08-.3-.07-.31,0-.32-.05-.32,0-.32,0-.34V88.58l0-.33,0-.33,0-.33.05-.31.06-.31.07-.3.08-.3.09-.29.11-.28.11-.27.13-.26.13-.25.15-.24.16-.23.17-.22.18-.21.2-.2.2-.18.22-.17.23-.16.24-.15.25-.14.26-.12.28-.11.29-.08.3-.08.31,0,.33,0,.33,0H222l.23,0,.22,0,.21,0,.21,0,.2,0,.2.07.18.07.18.08.16.08.17.09.15.09.15.09.14.09.14.1.13.11.12.1.12.1L225,84l.1.1.09.1V78.78l0,0-.06-.05-.06,0-.07,0-.07,0-.07,0-.08,0-.1,0-.1,0-.1,0-.1,0h-.09l-.09,0h-.08l-.39,0V77.11h3.92V94.17l0,0,.06.05.05,0,.06,0,.06,0,.07,0,.08,0,.1,0,.1,0h.1l.1,0,.09,0h.19l.39.06v1.26h-3.92V94.48l-.12.13-.21.22-.23.2-.23.18-.25.16-.26.14-.28.12Zm18.57-10.92-.16.06-.14.07-.15.07-.14.09-.14.09-.13.1-.13.11-.12.11-.11.11-.11.13-.1.13-.1.13-.09.15-.09.14-.08.15-.08.16-.07.15-.06.17-.06.16-.06.17,0,.17,0,.17,0,.17,0,.17,0,.14h5.77v-.18l0-.18,0-.18,0-.17,0-.18,0-.18,0-.17-.05-.16-.05-.16-.06-.16-.06-.14-.07-.15-.07-.14-.08-.13-.08-.12-.09-.12-.1-.11-.09-.1-.11-.1-.11-.09-.12-.09-.12-.08-.12-.06-.14-.06-.13-.06-.15,0-.15,0-.17,0-.17,0h-.36l-.17,0-.17,0-.17,0-.15,0Zm4.48,10.62-.34.12-.11,0-.12.05-.12,0-.14,0-.14.06-.15,0-.16.07-.19.06-.2.06-.21,0-.23,0-.23,0-.24,0h-.88l-.33,0-.33,0-.33,0-.31,0-.31-.07-.3-.09-.3-.09-.28-.11-.28-.13-.26-.13-.26-.16L239.7,95l-.23-.19-.22-.19L239,94.4l-.2-.23-.19-.23-.17-.25-.16-.27-.15-.28-.14-.29-.12-.31-.12-.31-.1-.34-.08-.34-.07-.37-.06-.37,0-.39,0-.4,0-.42v-.43l0-.35,0-.35,0-.33.05-.33.07-.33.07-.31.09-.31.11-.3.11-.29.13-.28.13-.28.15-.26.15-.25.16-.25.18-.23.18-.23.19-.21.2-.2.22-.19.22-.18.23-.17.24-.15.24-.14.26-.13.26-.12.27-.1.28-.08.27-.07.29,0,.29,0,.29,0h.62l.32,0,.3,0,.3,0,.28.08.28.08.27.11.25.12.24.13.23.15.22.16.21.18.2.18.19.21.17.21.16.23.15.24.14.24.13.26.11.27.11.28.09.29.09.3.07.31.07.32.05.33,0,.34,0,.35,0,.35v1.47h-8.29v.36l0,.33,0,.31.06.31.06.28.08.28.1.26.11.25.12.23.13.21.14.2.16.19.17.17.18.16.19.14.21.14.22.11.23.11.24.09.26.08.27.06.28.05.3,0,.3,0h.65l.35,0,.35,0,.37-.06.38-.08.83-.21v1.45Zm5.39-2.93h.17l.17,0,.16,0,.15,0,.15.07.14.09.14.1.12.12.12.12.1.14.09.14.07.16.05.15,0,.17,0,.17v.34l0,.17,0,.17-.05.15-.07.16-.09.14-.1.14-.12.12-.12.12-.14.1-.14.08-.15.08-.15,0-.16,0-.17,0h-.34l-.17,0-.16,0-.16,0-.15-.07-.15-.09-.13-.1-.13-.12-.11-.12-.11-.14-.08-.14-.07-.16-.06-.15,0-.17,0-.17V94l0-.17,0-.17.06-.15.07-.16.08-.14.11-.14.11-.12.13-.12.13-.1.15-.09.15-.07.16,0,.16,0,.17,0Zm5.51-13.66-.06-.06-.07-.06-.07-.05-.07,0-.09,0-.08,0-.09,0-.09,0h-.32l-.08,0-.56.19v-1.5h3.53L265.63,93l6-15.86H275v1.45l-.56-.19-.07,0h-.28l-.07,0-.08,0-.08,0-.07,0-.07,0-.07.06-.07.06-.06.07-.06.07,0,0-6.46,17h-2.79l-6.53-17,0,0-.06-.07ZM274.4,92.4h.17l.16,0,.16,0,.16,0,.15.07.14.09.13.1.13.12.11.12.1.14.09.14.07.16.06.15,0,.17,0,.17v.34l0,.17,0,.17-.06.15-.07.16-.09.14-.1.14-.11.12-.13.12-.13.1-.14.08-.15.08-.16,0-.16,0-.16,0h-.34l-.17,0-.17,0-.16,0-.15-.07-.14-.09-.14-.1-.12-.12-.12-.12-.1-.14-.09-.14-.07-.16-.05-.15,0-.17,0-.17V94l0-.17,0-.17.05-.15.07-.16.09-.14.1-.14.12-.12.12-.12.14-.1.14-.09.15-.07.16,0,.17,0,.17,0Z" transform="translate(-16 -14.28)"/></svg>